<svg width="340" height="340" viewBox="0 0 340 340" fill="none" xmlns="http://www.w3.org/2000/svg"><rect width="340" height="340"/><g filter="url(#filter0_d_514_3)"><circle cx="169.5" cy="169.5" r="155.5" fill="#D9D9D9"/><mask id="mask0_514_3" style="mask-type:alpha" maskUnits="userSpaceOnUse" x="14" y="14" width="311" height="311"><circle cx="169.5" cy="169.5" r="155.5" fill="#D9D9D9"/></mask><g mask="url(#mask0_514_3)"><path d="M276.883 362.867H62.1169V291.894C62.1169 281.55 70.5025 273.164 80.8465 273.164H258.153C268.497 273.164 276.883 281.55 276.883 291.894V362.867Z" fill="#2D3640"/><path d="M134.538 227.589H170.749H206.959V292.518H134.538V227.589Z" fill="#CD9644"/><g filter="url(#filter1_d_514_3)"><path d="M181.982 304.124C175.97 297.765 171.095 292.609 171.095 292.609L203.918 261.576C210.278 255.563 220.308 255.845 226.321 262.204C232.334 268.564 237.208 273.72 237.208 273.72L204.385 304.753C198.025 310.765 187.995 310.484 181.982 304.124Z" fill="#0E1822"/></g><g filter="url(#filter2_d_514_3)"><path d="M159.796 304.124C165.809 297.765 170.684 292.609 170.684 292.609L137.86 261.576C131.501 255.563 121.471 255.845 115.458 262.204C109.445 268.564 104.571 273.72 104.571 273.72L137.394 304.753C143.753 310.765 153.783 310.484 159.796 304.124Z" fill="#0E1822"/></g><path d="M250.661 117.726C250.661 165.644 214.604 204.489 170.124 204.489C125.645 204.489 89.5869 165.644 89.5869 117.726C89.5869 69.8077 107.068 46.9803 170.124 46.9802C236.302 46.9802 250.661 69.8077 250.661 117.726Z" fill="#2C2C2C"/><circle cx="246.916" cy="159.538" r="17.481" fill="#FFBE5C"/><circle cx="246.916" cy="159.538" r="8.74048" fill="#CD9644"/><circle cx="93.3329" cy="162.036" r="17.481" fill="#FFBE5C"/><circle cx="93.3328" cy="162.035" r="8.74048" fill="#CD9644"/><path d="M94.5815 133.317C94.5815 94.0094 126.447 62.1444 165.754 62.1444H175.743C215.051 62.1444 246.916 94.0094 246.916 133.317V167.03C246.916 206.338 215.051 238.203 175.743 238.203H165.754C126.447 238.203 94.5815 206.338 94.5815 167.03V133.317Z" fill="#FFBE5C"/><path d="M144.527 226.435C144.527 236.089 152.354 243.916 162.008 243.916H179.489C189.144 243.916 196.97 236.089 196.97 226.435V226.435H144.527V226.435Z" fill="#2C2C2C"/><path fill-rule="evenodd" clip-rule="evenodd" d="M158.262 177.019C158.262 174.95 159.939 173.273 162.008 173.273H179.489C181.558 173.273 183.235 174.95 183.235 177.019C183.235 179.088 181.558 180.765 179.489 180.765H162.008C159.939 180.765 158.262 179.088 158.262 177.019ZM149.37 194.602C150.833 193.139 153.205 193.139 154.668 194.602C163.689 203.623 178.315 203.623 187.336 194.602C188.799 193.139 191.171 193.139 192.633 194.602C194.096 196.065 194.096 198.436 192.633 199.899C180.687 211.846 161.317 211.846 149.37 199.899C147.907 198.436 147.907 196.065 149.37 194.602Z" fill="#CD9644"/><circle cx="135.787" cy="148.301" r="8.74048" fill="#2C2C2C"/><circle cx="205.71" cy="148.301" r="8.74048" fill="#2C2C2C"/><path fill-rule="evenodd" clip-rule="evenodd" d="M224.95 132.132C216.533 122.176 201.557 120.95 191.493 129.457C190.177 130.57 188.207 130.405 187.094 129.089C185.981 127.772 186.146 125.803 187.463 124.69C200.129 113.982 219.049 115.482 229.717 128.101C230.83 129.418 230.665 131.387 229.349 132.5C228.032 133.613 226.063 133.448 224.95 132.132ZM149.9 131.863C140.578 123.248 126.333 123.707 118.072 132.647C116.902 133.913 114.927 133.991 113.66 132.821C112.394 131.651 112.316 129.676 113.487 128.409C124.191 116.826 142.396 116.428 154.138 127.278C155.404 128.448 155.482 130.423 154.311 131.689C153.141 132.956 151.166 133.033 149.9 131.863Z" fill="#2C2C2C"/><g filter="url(#filter3_d_514_3)"><path d="M193.681 42.166H130.573C114.144 42.166 100.825 55.3033 100.825 71.509C100.825 87.7148 114.144 100.852 130.573 100.852H256.28C256.28 100.852 257.529 75.255 241.297 59.0227C225.064 42.7903 193.681 42.166 193.681 42.166Z" fill="#2C2C2C"/></g><path fill-rule="evenodd" clip-rule="evenodd" d="M140.801 53.4039C140.801 51.6799 142.199 50.2823 143.923 50.2823H195.754L195.889 50.2941L195.619 53.4039C195.889 50.2941 195.89 50.2942 195.891 50.2942L195.899 50.2949L195.918 50.2966L195.984 50.3027C196.041 50.308 196.122 50.3158 196.227 50.3262C196.436 50.3471 196.738 50.3788 197.124 50.4229C197.895 50.511 199 50.649 200.359 50.8503C203.073 51.2524 206.817 51.9102 210.94 52.9349C219.027 54.9452 229.184 58.5103 235.568 64.811C241.688 70.8523 244.845 76.9193 246.465 81.546C247.273 83.854 247.697 85.7961 247.919 87.1906C248.03 87.888 248.09 88.4495 248.124 88.8524C248.14 89.054 248.15 89.216 248.156 89.3359C248.159 89.3958 248.161 89.4451 248.162 89.4836L248.163 89.5331L248.164 89.5517L248.164 89.5594L248.164 89.5628C248.164 89.5645 248.164 89.566 245.043 89.6145L248.164 89.566C248.191 91.2899 246.815 92.709 245.091 92.7357C243.373 92.7624 241.957 91.3955 241.922 89.6794C241.922 89.6749 241.922 89.6704 241.921 89.6659L241.922 89.6732L241.922 89.6794C241.922 89.6823 241.922 89.6818 241.922 89.6794C241.922 89.6792 241.922 89.6797 241.922 89.6794C241.922 89.674 241.921 89.6591 241.92 89.6352C241.917 89.5848 241.912 89.4944 241.902 89.3665C241.881 89.1106 241.838 88.7055 241.753 88.1721C241.583 87.105 241.245 85.5287 240.573 83.6093C239.232 79.781 236.555 74.5572 231.182 69.2544C226.072 64.2111 217.351 60.9618 209.434 58.9937C205.553 58.0292 202.014 57.4068 199.444 57.0261C198.161 56.836 197.125 56.7068 196.415 56.6257C196.06 56.5851 195.787 56.5566 195.606 56.5385C195.554 56.5334 195.51 56.529 195.474 56.5255H143.923C142.199 56.5255 140.801 55.128 140.801 53.4039Z" fill="#BFBFBF" fill-opacity="0.148"/></g></g><defs><filter id="filter0_d_514_3" x="10" y="14" width="319" height="319" filterUnits="userSpaceOnUse" color-interpolation-filters="sRGB"><feFlood flood-opacity="0" result="BackgroundImageFix"/><feColorMatrix in="SourceAlpha" type="matrix" values="0 0 0 0 0 0 0 0 0 0 0 0 0 0 0 0 0 0 127 0" result="hardAlpha"/><feOffset dy="4"/><feGaussianBlur stdDeviation="2"/><feComposite in2="hardAlpha" operator="out"/><feColorMatrix type="matrix" values="0 0 0 0 0 0 0 0 0 0 0 0 0 0 0 0 0 0 0.25 0"/><feBlend mode="normal" in2="BackgroundImageFix" result="effect1_dropShadow_514_3"/><feBlend mode="normal" in="SourceGraphic" in2="effect1_dropShadow_514_3" result="shape"/></filter><filter id="filter1_d_514_3" x="171.095" y="257.244" width="66.113" height="55.8402" filterUnits="userSpaceOnUse" color-interpolation-filters="sRGB"><feFlood flood-opacity="0" result="BackgroundImageFix"/><feColorMatrix in="SourceAlpha" type="matrix" values="0 0 0 0 0 0 0 0 0 0 0 0 0 0 0 0 0 0 127 0" result="hardAlpha"/><feOffset dy="4"/><feColorMatrix type="matrix" values="0 0 0 0 0 0 0 0 0 0 0 0 0 0 0 0 0 0 0.25 0"/><feBlend mode="normal" in2="BackgroundImageFix" result="effect1_dropShadow_514_3"/><feBlend mode="normal" in="SourceGraphic" in2="effect1_dropShadow_514_3" result="shape"/></filter><filter id="filter2_d_514_3" x="104.571" y="257.244" width="66.113" height="55.8402" filterUnits="userSpaceOnUse" color-interpolation-filters="sRGB"><feFlood flood-opacity="0" result="BackgroundImageFix"/><feColorMatrix in="SourceAlpha" type="matrix" values="0 0 0 0 0 0 0 0 0 0 0 0 0 0 0 0 0 0 127 0" result="hardAlpha"/><feOffset dy="4"/><feColorMatrix type="matrix" values="0 0 0 0 0 0 0 0 0 0 0 0 0 0 0 0 0 0 0.25 0"/><feBlend mode="normal" in2="BackgroundImageFix" result="effect1_dropShadow_514_3"/><feBlend mode="normal" in="SourceGraphic" in2="effect1_dropShadow_514_3" result="shape"/></filter><filter id="filter3_d_514_3" x="100.825" y="42.166" width="155.478" height="62.686" filterUnits="userSpaceOnUse" color-interpolation-filters="sRGB"><feFlood flood-opacity="0" result="BackgroundImageFix"/><feColorMatrix in="SourceAlpha" type="matrix" values="0 0 0 0 0 0 0 0 0 0 0 0 0 0 0 0 0 0 127 0" result="hardAlpha"/><feOffset dy="4"/><feColorMatrix type="matrix" values="0 0 0 0 0 0 0 0 0 0 0 0 0 0 0 0 0 0 0.25 0"/><feBlend mode="normal" in2="BackgroundImageFix" result="effect1_dropShadow_514_3"/><feBlend mode="normal" in="SourceGraphic" in2="effect1_dropShadow_514_3" result="shape"/></filter></defs></svg>